<svg xmlns="http://www.w3.org/2000/svg" width="247.374" height="93.578" viewBox="0 0 247.374 93.578">
  <g id="Group_33" data-name="Group 33" transform="translate(-276.999 -77.956)">
    <g id="Group_32" data-name="Group 32">
      <g id="Group_31" data-name="Group 31">
        <path id="Path_2" data-name="Path 2" d="M406.667,131.13q.462.364,1.026.744a8.71,8.71,0,0,0,1.24.7,8.169,8.169,0,0,0,1.472.513,7.1,7.1,0,0,0,1.72.2,5.581,5.581,0,0,0,1.356-.165,3.655,3.655,0,0,0,1.175-.513,2.814,2.814,0,0,0,.844-.909,3.093,3.093,0,0,0-.034-2.846,3.358,3.358,0,0,0-.959-1.008,6.419,6.419,0,0,0-1.373-.711q-.777-.3-1.637-.6-1.061-.364-2.134-.793a7.478,7.478,0,0,1-1.935-1.125,5.348,5.348,0,0,1-1.406-1.77,6.012,6.012,0,0,1-.546-2.729,6.082,6.082,0,0,1,.628-2.812,5.8,5.8,0,0,1,1.721-2.035,7.859,7.859,0,0,1,2.514-1.224,10.746,10.746,0,0,1,3.01-.413,11.8,11.8,0,0,1,2.034.165,13.82,13.82,0,0,1,1.687.4,9.344,9.344,0,0,1,1.257.48,4.884,4.884,0,0,1,.778.447,1.69,1.69,0,0,1,.926,1.488,2.575,2.575,0,0,1-.347,1.075,5.828,5.828,0,0,1-.976,1.34,10.084,10.084,0,0,0-2.15-1.257,6.694,6.694,0,0,0-4-.48,3.8,3.8,0,0,0-1.142.4,2.408,2.408,0,0,0-.843.761,2.13,2.13,0,0,0-.331,1.241,2.165,2.165,0,0,0,.331,1.207,3.1,3.1,0,0,0,.892.893,6.842,6.842,0,0,0,1.308.678q.742.3,1.538.6,1.058.4,2.149.844a7.744,7.744,0,0,1,1.986,1.174,5.725,5.725,0,0,1,1.455,1.8,5.793,5.793,0,0,1,.562,2.7,7.369,7.369,0,0,1-.612,3.093,6.444,6.444,0,0,1-1.7,2.267,7.241,7.241,0,0,1-2.631,1.389,11.623,11.623,0,0,1-3.357.462,12.8,12.8,0,0,1-3.837-.479,11.182,11.182,0,0,1-2.151-.876,2.612,2.612,0,0,1-.661-.629,1.365,1.365,0,0,1-.264-.827,2.89,2.89,0,0,1,.446-1.356,12.786,12.786,0,0,1,.976-1.489" fill="#fff"/>
        <path id="Path_3" data-name="Path 3" d="M433.362,127.723v8.5h-4.5v-8.369l-7.079-13.265a7.636,7.636,0,0,1,1.324-.463,5.648,5.648,0,0,1,1.421-.2,2.805,2.805,0,0,1,1.77.463,4.23,4.23,0,0,1,1.042,1.323l3.854,7.708,3.854-7.642a3.9,3.9,0,0,1,1.059-1.323,2.892,2.892,0,0,1,1.852-.529,5.85,5.85,0,0,1,1.323.132,10.284,10.284,0,0,1,1.191.364Z" fill="#fff"/>
        <path id="Path_4" data-name="Path 4" d="M456.087,129.344v-15.25l.529-.066.463-.066a3.291,3.291,0,0,1,.464-.033,5.17,5.17,0,0,1,.976.1,2.647,2.647,0,0,1,.926.364,2.1,2.1,0,0,1,.7.777,2.786,2.786,0,0,1,.281,1.34v19.715h-3.838l-9.428-14.555v14.555h-4.333v-22.1q.332-.066.893-.132a9.644,9.644,0,0,1,1.125-.066,3.178,3.178,0,0,1,1.654.363,3.3,3.3,0,0,1,1.059,1.125Z" fill="#fff"/>
        <path id="Path_5" data-name="Path 5" d="M469.748,117.766h-6.913v-.034a6.4,6.4,0,0,1-.083-.661q-.017-.264-.016-.628a2.445,2.445,0,0,1,.645-1.638,2.738,2.738,0,0,1,2.166-.744H481.1a10.075,10.075,0,0,1,.1,1.422,2.728,2.728,0,0,1-.133.844,1.712,1.712,0,0,1-.463.728,2.558,2.558,0,0,1-.843.513,3.562,3.562,0,0,1-1.274.2h-4.168v18.458h-4.565Z" fill="#fff"/>
        <path id="Path_6" data-name="Path 6" d="M488.008,123.092h8.4v-9q.262-.033.558-.066l.542-.066a4.626,4.626,0,0,1,.542-.034,4.94,4.94,0,0,1,.936.1,2.6,2.6,0,0,1,.936.38,2.221,2.221,0,0,1,.706.778,2.7,2.7,0,0,1,.279,1.323v19.715h-4.5v-9.593h-8.4v9.593h-4.5v-22.13l.591-.066.508-.066a3.605,3.605,0,0,1,.477-.034,5.158,5.158,0,0,1,1,.1,2.571,2.571,0,0,1,.936.381,2.2,2.2,0,0,1,.706.78,2.7,2.7,0,0,1,.28,1.328Z" fill="#fff"/>
        <path id="Path_7" data-name="Path 7" d="M513.413,118.064l-3.01,9.427h5.921Zm5.657,18.16-1.886-5.424h-7.642l-1.819,5.424h-4.5l7.675-21.832a6.5,6.5,0,0,1,1.108-.315,7.517,7.517,0,0,1,1.538-.148,5.6,5.6,0,0,1,.811.066,2.9,2.9,0,0,1,.876.281,2.974,2.974,0,0,1,.811.612,2.867,2.867,0,0,1,.612,1.091l7.112,20.245Z" fill="#fff"/>
        <path id="Path_8" data-name="Path 8" d="M421.22,169.957h-6.655l-9.852-29.292a6.37,6.37,0,0,1,1.336-.306,13.224,13.224,0,0,1,1.9-.131,3.974,3.974,0,0,1,2.65.832,4.951,4.951,0,0,1,1.466,2.408l6,19.921,6.13-20.052a4.812,4.812,0,0,1,1.423-2.321,3.938,3.938,0,0,1,2.605-.788,9.071,9.071,0,0,1,1.4.109q.7.111,1.576.328Z" fill="#fff"/>
        <path id="Path_9" data-name="Path 9" d="M449.9,165.1a5.011,5.011,0,0,1,1.751.263,2.96,2.96,0,0,1,1.117.7,2.525,2.525,0,0,1,.59,1.008,3.842,3.842,0,0,1,.175,1.138c0,.322-.007.591-.021.81s-.037.46-.066.722H434.486V140.4h18.257a7.42,7.42,0,0,1,.11.81c.014.219.022.489.022.81a3.067,3.067,0,0,1-.788,2.3,4.234,4.234,0,0,1-2.934.767h-8.625v7.225h9.282V157h-9.282v8.1Z" fill="#fff"/>
        <path id="Path_10" data-name="Path 10" d="M471.176,149.379q0-2.759-1.444-3.875a6.3,6.3,0,0,0-3.941-1.116q-.787,0-1.357.043c-.381.03-.7.059-.964.088v10.113h2.058a6.183,6.183,0,0,0,4.116-1.291,4.89,4.89,0,0,0,1.532-3.962m6.3-.57a10.429,10.429,0,0,1-.46,3.219,8.35,8.35,0,0,1-1.248,2.473,7.807,7.807,0,0,1-1.8,1.751,9.381,9.381,0,0,1-2.057,1.1l7.223,12.084a9.675,9.675,0,0,1-1.751.547,8.386,8.386,0,0,1-1.751.2,4.944,4.944,0,0,1-2.714-.7,6.531,6.531,0,0,1-2.015-2.277l-4.991-8.5h-2.408v11.034h-6.042v-29.16q1.971-.218,4.028-.328t3.721-.109q6.35,0,9.3,2.145t2.955,6.523" fill="#fff"/>
        <path id="Path_11" data-name="Path 11" d="M482.56,163q.613.481,1.357.984a11.566,11.566,0,0,0,1.643.92,10.807,10.807,0,0,0,1.948.679,9.376,9.376,0,0,0,2.276.262,7.384,7.384,0,0,0,1.8-.218,4.892,4.892,0,0,0,1.554-.679,3.7,3.7,0,0,0,1.116-1.2,3.581,3.581,0,0,0,.438-1.839,3.632,3.632,0,0,0-.481-1.927,4.436,4.436,0,0,0-1.271-1.335,8.538,8.538,0,0,0-1.816-.942q-1.03-.393-2.168-.788-1.4-.481-2.824-1.05a9.878,9.878,0,0,1-2.561-1.489,7.09,7.09,0,0,1-1.861-2.342,7.947,7.947,0,0,1-.722-3.612,8.027,8.027,0,0,1,.832-3.722A7.665,7.665,0,0,1,484.092,142a10.393,10.393,0,0,1,3.329-1.62,14.222,14.222,0,0,1,3.983-.547,15.589,15.589,0,0,1,2.693.219,18.143,18.143,0,0,1,2.233.525,12.264,12.264,0,0,1,1.664.635,6.521,6.521,0,0,1,1.029.592,2.234,2.234,0,0,1,1.225,1.969,3.389,3.389,0,0,1-.459,1.423,7.665,7.665,0,0,1-1.292,1.774,13.344,13.344,0,0,0-2.845-1.664,8.862,8.862,0,0,0-3.679-.788,8.965,8.965,0,0,0-1.62.153,5.055,5.055,0,0,0-1.51.525,3.218,3.218,0,0,0-1.117,1.008,2.829,2.829,0,0,0-.438,1.641,2.881,2.881,0,0,0,.438,1.6,4.143,4.143,0,0,0,1.182,1.182,9.239,9.239,0,0,0,1.73.9q.986.393,2.036.788,1.4.523,2.847,1.115a10.347,10.347,0,0,1,2.626,1.555,7.564,7.564,0,0,1,1.926,2.386,7.656,7.656,0,0,1,.745,3.569,9.763,9.763,0,0,1-.81,4.094,8.532,8.532,0,0,1-2.255,3,9.577,9.577,0,0,1-3.481,1.839,15.378,15.378,0,0,1-4.443.613,16.916,16.916,0,0,1-5.08-.635,14.765,14.765,0,0,1-2.846-1.16,3.408,3.408,0,0,1-.875-.832,1.805,1.805,0,0,1-.351-1.1,3.825,3.825,0,0,1,.592-1.795A16.6,16.6,0,0,1,482.56,163" fill="#fff"/>
        <path id="Path_12" data-name="Path 12" d="M520.739,165.1a5.011,5.011,0,0,1,1.751.263,2.952,2.952,0,0,1,1.117.7,2.551,2.551,0,0,1,.591,1.008,3.874,3.874,0,0,1,.175,1.138c0,.322-.008.591-.022.81s-.037.46-.066.722H505.327V140.4h18.258a7.631,7.631,0,0,1,.109.81c.014.219.022.489.022.81a3.064,3.064,0,0,1-.789,2.3,4.228,4.228,0,0,1-2.932.767h-8.626v7.225h9.283V157h-9.283v8.1Z" fill="#fff"/>
        <path id="Path_13" data-name="Path 13" d="M402.349,78.445a44.538,44.538,0,0,0-6.485-.489q-6.24,0-9.85,3.059a14.88,14.88,0,0,0-4.834,8.076l-12.867,51.077c0-.025,0-.053-.006-.079a49.171,49.171,0,0,0-4.172-23.144C357.621,103.072,344.5,95.094,335.367,91a48.254,48.254,0,0,0-8.627-3.249c-.767-.23-1.208-.343-1.237-.352v.029a67.824,67.824,0,0,0-16.323-1.8,45.3,45.3,0,0,0-11.808,1.53,29.98,29.98,0,0,0-10.034,4.711,24.046,24.046,0,0,0-6.975,8.015,23.575,23.575,0,0,0-2.631,11.441,24.98,24.98,0,0,0,2.08,10.829,21.375,21.375,0,0,0,5.384,7.159,29.6,29.6,0,0,0,7.342,4.588,81.766,81.766,0,0,0,7.832,3q2.57.856,4.833,1.713a19.548,19.548,0,0,1,3.915,1.958,9.714,9.714,0,0,1,2.631,2.508,5.545,5.545,0,0,1,.979,3.243q0,6.73-8.321,6.73a27.339,27.339,0,0,1-10.89-2.2,57.08,57.08,0,0,1-9.789-5.384,54.967,54.967,0,0,0-4.65,6.73,13.049,13.049,0,0,0-2.08,6.486,8.354,8.354,0,0,0,1.1,4.16,9.144,9.144,0,0,0,3.3,3.3,35.5,35.5,0,0,0,9.3,3.732,56.612,56.612,0,0,0,14.806,1.652,45.385,45.385,0,0,0,13.031-1.775,28.211,28.211,0,0,0,10.279-5.445,24.644,24.644,0,0,0,6.73-9.177,32.089,32.089,0,0,0,2.386-12.848,23.356,23.356,0,0,0-2.325-11.074,22.27,22.27,0,0,0-5.935-7.158,31.6,31.6,0,0,0-8.014-4.528q-4.405-1.711-8.443-3.059a34.568,34.568,0,0,1-6.914-3,4.629,4.629,0,0,1-2.508-4.1,4.223,4.223,0,0,1,2.2-3.793,12.026,12.026,0,0,1,6.241-1.346,22.778,22.778,0,0,1,4.038.428c.979.182,2,.417,3.042.695l-.014.048c.185.057,19.164,4.806,27.236,22,7.461,15.891.329,38.543-1.014,42.542h34.125l28.6-90.029a56.8,56.8,0,0,0-5.9-1.469" fill="#fff"/>
      </g>
    </g>
  </g>
</svg>
